<?xml version="1.0" encoding="iso-8859-1"?>
<!-- Generator: Adobe Illustrator 19.0.0, SVG Export Plug-In . SVG Version: 6.00 Build 0)  -->
<svg version="1.1" id="Layer_1" xmlns="http://www.w3.org/2000/svg" xmlns:xlink="http://www.w3.org/1999/xlink" x="0px" y="0px"
	 viewBox="0 0 511.999 511.999" style="enable-background:new 0 0 511.999 511.999;" xml:space="preserve">
<path style="fill:#FFC61B;" d="M355.11,511.999H125.188c-7.054,0-12.953-5.363-13.622-12.387L84.196,212.26
	c-0.365-3.837,0.905-7.651,3.499-10.504c2.593-2.852,6.269-4.477,10.123-4.477h284.661c7.556,0,13.684,6.126,13.684,13.684
	s-6.128,13.684-13.684,13.684H112.867l24.764,259.986h205.036l17.536-184.108c0.717-7.523,7.403-13.049,14.919-12.325
	c7.523,0.717,13.041,7.396,12.325,14.919l-18.717,196.494C368.063,506.637,362.164,511.999,355.11,511.999z"/>
<rect x="88.505" y="109.642" transform="matrix(-0.9415 -0.337 0.337 -0.9415 447.5662 371.3838)" style="fill:#FEE187;" width="335.02" height="74.412"/>
<g>
	<path style="fill:#FFC61B;" d="M401.172,252.028c-1.531,0-3.088-0.259-4.611-0.805L81.136,138.309
		c-3.417-1.223-6.208-3.753-7.76-7.035c-1.55-3.28-1.735-7.043-0.512-10.46l25.078-70.056c1.223-3.417,3.753-6.208,7.035-7.759
		c3.283-1.552,7.044-1.735,10.461-0.513l315.425,112.915c3.417,1.223,6.208,3.753,7.76,7.035c1.55,3.28,1.735,7.043,0.512,10.46
		l-25.078,70.056C412.054,248.543,406.788,252.028,401.172,252.028z M103.242,117.155L392.9,220.846l15.855-44.289L119.098,72.865
		L103.242,117.155z"/>
	<path style="fill:#FFC61B;" d="M347.902,98.696c-1.531,0-3.088-0.259-4.613-0.805c-7.114-2.548-10.817-10.381-8.271-17.496
		l5.073-14.167l-97.913-35.05l-5.071,14.167c-2.547,7.117-10.383,10.817-17.495,8.272c-7.116-2.547-10.818-10.379-8.272-17.495
		l9.683-27.05c1.223-3.417,3.753-6.208,7.035-7.759c3.281-1.552,7.044-1.735,10.461-0.513l123.68,44.274
		c3.417,1.223,6.208,3.753,7.76,7.035c1.55,3.28,1.735,7.043,0.512,10.461l-9.684,27.05
		C358.784,95.212,353.518,98.694,347.902,98.696z"/>
</g>
<g>
</g>
<g>
</g>
<g>
</g>
<g>
</g>
<g>
</g>
<g>
</g>
<g>
</g>
<g>
</g>
<g>
</g>
<g>
</g>
<g>
</g>
<g>
</g>
<g>
</g>
<g>
</g>
<g>
</g>
</svg>
